<svg xmlns="http://www.w3.org/2000/svg" viewBox="0 0 24 24" fill="currentColor">
  <path d="M20.52 3.48A11.94 11.94 0 0 0 12.01 0C5.4 0 .02 5.37.02 12c0 2.11.55 4.15 1.6 5.97L0 24l6.19-1.62A11.94 11.94 0 0 0 12.01 24c6.62 0 12-5.38 12-12 0-3.2-1.25-6.22-3.49-8.52ZM12.01 22a9.93 9.93 0 0 1-5.04-1.39l-.36-.21-3.67.96.98-3.58-.24-.37A9.95 9.95 0 0 1 2.01 12c0-5.51 4.49-9.99 10-9.99 2.67 0 5.18 1.04 7.07 2.93A9.95 9.95 0 0 1 22 12c0 5.51-4.49 10-9.99 10Z"/>
  <path d="M17.37 14.04c-.29-.15-1.71-.84-1.98-.94-.27-.1-.47-.15-.67.15-.2.3-.77.94-.95 1.13-.18.2-.35.22-.64.07-.29-.15-1.2-.44-2.29-1.41-.85-.76-1.42-1.7-1.59-1.98-.16-.29-.02-.45.12-.59.12-.12.29-.31.43-.47.14-.16.18-.27.27-.46.09-.2.04-.35-.02-.49-.06-.15-.67-1.61-.92-2.2-.24-.59-.49-.51-.67-.52l-.58-.01c-.2 0-.49.07-.75.35-.26.28-1 1-1 2.44 0 1.44 1.02 2.83 1.16 3.03.14.2 2.01 3.07 4.87 4.31.68.29 1.22.47 1.64.6.69.22 1.32.18 1.82.11.55-.08 1.71-.7 1.95-1.38.24-.69.24-1.28.17-1.4-.07-.12-.26-.2-.55-.35Z"/>
</svg>